<svg xmlns="http://www.w3.org/2000/svg" viewBox="0 0 300 60">
  <defs>
    <style>
      .cls-1{fill:#f9934e;}
      .cls-2{fill:#f48337;}
      .cls-3{fill:#e0d5ce;}
      .cls-4{fill:#c1b3ac;}
      .cls-5{fill:#ececec;}
      .cls-6{fill:#f74141;}
      .cls-7{fill:#a89d98;}
      .cls-8{fill:#ef3030;}
      .text-primary{fill:#5f6fff;}
      .text-dark{fill:#374151;}
    </style>
  </defs>
  
  <!-- Hospital Icon (scaled down and positioned) -->
  <g transform="translate(5,8) scale(0.35)">
    <rect class="cls-1" x="4.598" y="22.223" width="118.804" height="12.143" rx="5"/>
    <path class="cls-2" d="M64,22.223H9.6a5,5,0,0,0-5,5v2.143a5,5,0,0,0,5,5H64Z"/>
    <rect class="cls-3" x="11.204" y="34.366" width="105.593" height="81.054"/>
    <rect class="cls-4" x="11.204" y="34.366" width="52.796" height="81.054"/>
    <path class="cls-5" d="M64,5.17h0A29.533,29.533,0,0,1,93.533,34.7V115.42a0,0,0,0,1,0,0H34.467a0,0,0,0,1,0,0V34.7A29.533,29.533,0,0,1,64,5.17Z"/>
    <path class="cls-3" d="M34.467,34.7V115.42H64V5.17A29.533,29.533,0,0,0,34.467,34.7Z"/>
    <path class="cls-1" d="M11.339,107.08H116.661a6,6,0,0,1,6,6v6.75a3,3,0,0,1-3,3H8.339a3,3,0,0,1-3-3v-6.75A6,6,0,0,1,11.339,107.08Z"/>
    <path class="cls-6" d="M79.116,35.913v4.549a2.446,2.446,0,0,1-2.446,2.446H69.944a1.223,1.223,0,0,0-1.223,1.223v6.726A2.446,2.446,0,0,1,66.275,53.3h-4.55a2.446,2.446,0,0,1-2.446-2.446V44.131a1.223,1.223,0,0,0-1.223-1.223H51.33a2.446,2.446,0,0,1-2.446-2.446V35.913a2.446,2.446,0,0,1,2.446-2.446h6.726a1.223,1.223,0,0,0,1.223-1.223V25.518a2.446,2.446,0,0,1,2.446-2.446h4.55a2.446,2.446,0,0,1,2.446,2.446v6.726a1.223,1.223,0,0,0,1.223,1.223H76.67A2.446,2.446,0,0,1,79.116,35.913Z"/>
    <path class="cls-3" d="M55.764,68.723H72.236a6,6,0,0,1,6,6V107.08a0,0,0,0,1,0,0H49.764a0,0,0,0,1,0,0V74.723A6,6,0,0,1,55.764,68.723Z"/>
    <path class="cls-4" d="M66,107.08V69.83a1.983,1.983,0,0,0-.336-1.107H62.336A1.983,1.983,0,0,0,62,69.83v37.25h4Z"/>
    <path class="cls-2" d="M64,107.08H11.339a6,6,0,0,0-6,6v6.75a3,3,0,0,0,3,3H64Z"/>
    <path class="cls-4" d="M64,68.723H55.764a6,6,0,0,0-6,6V107.08H64Z"/>
    <path class="cls-7" d="M62.336,68.723A1.983,1.983,0,0,0,62,69.83v37.25h2V68.723Z"/>
    <path class="cls-8" d="M64,23.072H61.725a2.446,2.446,0,0,0-2.446,2.446v6.726a1.223,1.223,0,0,1-1.223,1.223H51.33a2.446,2.446,0,0,0-2.446,2.446v4.549a2.446,2.446,0,0,0,2.446,2.446h6.726a1.223,1.223,0,0,1,1.223,1.223v6.726A2.446,2.446,0,0,0,61.725,53.3H64Z"/>
  </g>
  
  <!-- Text -->
  <text x="55" y="22" class="text-primary" style="font-family: Arial, sans-serif; font-size: 18px; font-weight: bold;">Hospital</text>
  <text x="55" y="40" class="text-dark" style="font-family: Arial, sans-serif; font-size: 14px; font-weight: 500;">Management System</text>
</svg>
